<?xml version="1.0" encoding="UTF-8"?>
<svg xmlns="http://www.w3.org/2000/svg" viewBox="0 0 100 100" width="100" height="100">
    <defs>
        <linearGradient id="gradient" x1="0%" y1="0%" x2="100%" y2="0%">
            <stop offset="0%" stop-color="#4285F4" />
            <stop offset="50%" stop-color="#9370DB" />
            <stop offset="100%" stop-color="#9932CC" />
        </linearGradient>
    </defs>
    
    <!-- Simple G Letter -->
    <path d="M25 20 C25 10 35 5 45 5 C55 5 65 10 65 20 C65 30 60 35 55 40 C50 45 45 50 40 50 C35 50 30 45 30 40 C30 35 35 30 35 20 C35 15 32 12 30 15 C28 18 25 20 25 25 C25 30 28 35 30 40 C32 45 35 50 40 55 C45 60 55 60 60 55 C65 50 70 45 70 35 C70 25 65 20 60 20 C55 20 50 25 50 30 C50 35 45 40 40 45 C35 50 30 55 30 65 C30 75 35 80 45 80 C55 80 65 75 65 65 C65 55 60 50 55 50 C50 50 45 55 45 65 C45 75 50 80 60 80 C70 80 75 75 75 65 C75 55 70 50 65 50 C60 50 55 55 55 65 C55 75 60 80 70 80 C80 80 85 75 85 65 C85 55 80 50 75 50 C70 50 65 55 65 65 C65 75 70 80 80 80 C90 80 95 75 95 65 C95 55 90 50 85 50 C80 50 75 55 75 65 C75 75 80 80 90 80 Z"
          fill="url(#gradient)" />
</svg>
